# xmcd CD database file
#
# Track frame offsets:
#	150
#	34891
#	56309
#	71217
#	86491
#	110069
#	135496
#	154101
#	186128
#	208625
#	223037
#	245744
#
# Disc length: 3547 seconds
#
# Revision: 0
# Processed by: cddbd v1.5.1PL0 Copyright (c) Steve Scherf et al.
# Submitted via: CDex 1.51
#
DISCID=b10dd90c
DTITLE=Charlie Parker and Dizzy Gillespie - Blue 'N' Boogie
DYEAR=1900
DGENRE=Jazz
TTITLE0=Sweet Georgia Brown
TTITLE1=Dizzy Atmosphere
TTITLE2=Sweet Georgia Brown
TTITLE3=Lover Come Back To Me
TTITLE4=Groovin' High
TTITLE5=Confirmation
TTITLE6=Ko Ko
TTITLE7=Blue 'N' Boogie
TTITLE8=Anthropology
TTITLE9='Round About Midnight
TTITLE10=Night In Tunesia
TTITLE11=Hot House
EXTD=
EXTT0=
EXTT1=
EXTT2=
EXTT3=
EXTT4=
EXTT5=
EXTT6=
EXTT7=
EXTT8=
EXTT9=
EXTT10=
EXTT11=
PLAYORDER=
